<?xml version="1.0" encoding="UTF-8"?>
<svg xmlns="http://www.w3.org/2000/svg" xmlns:xlink="http://www.w3.org/1999/xlink" width="32px" height="32px" viewBox="0 0 32 32" version="1.1">
<g id="surface1">
<path style=" stroke:none;fill-rule:nonzero;fill:rgb(25.882354%,52.156866%,95.686275%);fill-opacity:1;" d="M 16 0 C 7.164062 0 0 7.164062 0 16 C 0 24.835938 7.164062 32 16 32 C 24.835938 32 32 24.835938 32 16 C 32 7.164062 24.835938 0 16 0 Z M 16 0 "/>
<path style=" stroke:none;fill-rule:nonzero;fill:rgb(100%,100%,100%);fill-opacity:1;" d="M 23.292969 9.5 L 17.230469 9.5 C 16.527344 9.5 15.957031 10.074219 15.957031 10.773438 L 15.957031 14.367188 L 13.105469 14.367188 C 12.519531 14.367188 12.042969 14.84375 12.042969 15.433594 L 12.042969 18.132812 C 12.042969 18.722656 12.519531 19.199219 13.105469 19.199219 L 15.957031 19.199219 L 15.957031 23.226562 C 15.957031 23.925781 16.527344 24.5 17.230469 24.5 L 23.292969 24.5 C 23.996094 24.5 24.566406 23.925781 24.566406 23.226562 L 24.566406 10.773438 C 24.566406 10.074219 23.996094 9.5 23.292969 9.5 Z M 23.292969 9.5 "/>
<path style=" stroke:none;fill-rule:nonzero;fill:rgb(25.882354%,52.156866%,95.686275%);fill-opacity:1;" d="M 8.875 14.371094 L 11.417969 14.371094 L 11.417969 19.199219 L 8.875 19.199219 C 8.289062 19.199219 7.8125 18.722656 7.8125 18.136719 L 7.8125 15.433594 C 7.8125 14.847656 8.289062 14.371094 8.875 14.371094 Z M 8.875 14.371094 "/>
</g>
</svg>
